#!OML:ASF E:\motion texture\Top Level 1\Subject 1\Session 1\male.ASF
:FULLY-SPECIFIED
:DEGREES
597
root -22.1548 17.7463 4.94054 130.833 -79.9146 -123.281
lowerback -1.60415 1.49407 7.39588
upperback -0.861328 1.75615 3.91643
thorax 0.115486 0.809875 -0.0723061
lowerneck -10.3605 -2.2902 -5.44005
upperneck -2.98651 -2.64902 7.06589
head 1.04103 -1.22444 3.14427
rclavicle -6.26172e-015 -5.64548e-014
rhumerus -8.10777 29.9386 -95.281
rradius 80.7043
rwrist -57.9376
rhand -10.0305 -66.0378
rfingers 7.12502
rthumb 15.9543 -624.599
lclavicle -6.26172e-015 -5.64548e-014
lhumerus -46.1111 -31.9934 110.614
lradius 105.611
lwrist 49.0708
lhand -6.41108 56.8839
lfingers 7.12502
lthumb 19.4371 85.9324
rfemur -2.21418 3.29072 28.9115
rtibia 30.0912
rfoot -12.3167 -12.7495
rtoes -3.22149
lfemur -30.6812 2.95517 -8.6449
ltibia 20.3166
lfoot -2.87783 7.50268
ltoes -13.3104
598
root -22.2975 17.747 4.95686 129.45 -80.2219 -121.999
lowerback -1.58996 1.45448 7.27193
upperback -0.890557 1.71374 3.84331
thorax 0.0734393 0.789373 -0.0811267
lowerneck -10.3869 -2.38942 -5.45629
upperneck -2.75713 -2.78249 7.09843
head 1.13105 -1.286 3.15281
rclavicle -2.88238e-015 5.36719e-014
rhumerus -6.8744 30.1194 -94.6927
rradius 82.4407
rwrist -56.9233
rhand -10.0101 -65.1096
rfingers 7.12502
rthumb 15.9739 -625.529
lclavicle -2.88238e-015 5.36719e-014
lhumerus -46.413 -31.2415 110.219
lradius 104.509
lwrist 48.9161
lhand -6.42934 57.0668
lfingers 7.12502
lthumb 19.4196 86.1171
rfemur -2.47386 2.88726 28.6812
rtibia 31.2855
rfoot -11.8502 -13.044
rtoes -3.09473
lfemur -30.3059 3.0824 -9.06686
ltibia 20.27
lfoot -2.82353 7.22178
ltoes -13.026
599
root -22.4409 17.749 4.97373 127.891 -80.5421 -120.546
lowerback -1.57771 1.403 7.13683
upperback -0.920871 1.65542 3.7694
thorax 0.030316 0.761003 -0.084794
lowerneck -10.3999 -2.48411 -5.4748
upperneck -2.56181 -2.91002 7.14167
head 1.2077 -1.34519 3.16562
rclavicle 9.49197e-015 -4.92986e-014
rhumerus -5.69019 30.2272 -94.0949
rradius 84.0812
rwrist -55.7876
rhand -10.03 -64.1925
rfingers 7.12502
rthumb 15.9547 -626.445
lclavicle 9.49197e-015 -4.92986e-014
lhumerus -46.6399 -30.5234 109.845
lradius 103.345
lwrist 48.7433
lhand -6.47271 57.2632
lfingers 7.12502
lthumb 19.3779 86.3177
rfemur -2.77403 2.465 28.4431
rtibia 32.5187
rfoot -11.351 -13.3624
rtoes -2.8736
lfemur -29.9044 3.20957 -9.50123
ltibia 20.2482
lfoot -2.80038 6.92662
ltoes -12.7311
600
root -22.585 17.7524 4.99116 126.127 -80.8728 -118.892
lowerback -1.56709 1.34013 6.99331
upperback -0.952889 1.58193 3.69338
thorax -0.0144722 0.725092 -0.0861351
lowerneck -10.4011 -2.57487 -5.49431
upperneck -2.39994 -3.03252 7.19619
head 1.27147 -1.40241 3.18263
rclavicle 5.26779e-015 -3.06128e-014
rhumerus -4.56648 30.2621 -93.4983
rradius 85.6185
rwrist -54.5447
rhand -10.0891 -63.3062
rfingers 7.12502
rthumb 15.8978 -627.326
lclavicle 5.26779e-015 -3.06128e-014
lhumerus -46.7929 -29.8406 109.493
lradius 102.123
lwrist 48.5526
lhand -6.53259 57.485
lfingers 7.12502
lthumb 19.3203 86.5452
rfemur -3.11601 2.02539 28.1984
rtibia 33.7854
rfoot -10.8254 -13.7018
rtoes -2.56286
lfemur -29.4786 3.33225 -9.9445
ltibia 20.2465
lfoot -2.80749 6.61797
ltoes -12.4281
601
root -22.7296 17.757 5.00908 124.136 -81.211 -117.015
lowerback -1.55638 1.26622 6.83946
upperback -0.986997 1.49387 3.61644
thorax -0.0622642 0.681906 -0.0828388
lowerneck -10.3928 -2.66198 -5.51508
upperneck -2.27001 -3.15018 7.26017
head 1.3232 -1.45771 3.20329
rclavicle 2.00276e-014 4.13472e-014
rhumerus -3.5164 30.2327 -92.9108
rradius 87.0506
rwrist -53.2148
rhand -10.1756 -62.489
rfingers 7.12502
rthumb 15.8146 -628.137
lclavicle 2.00276e-014 4.13472e-014
lhumerus -46.8739 -29.1921 109.17
lradius 100.846
lwrist 48.3438
lhand -6.6078 57.73
lfingers 7.12502
lthumb 19.248 86.7975
rfemur -3.49972 1.57177 27.9482
rtibia 35.0794
rfoot -10.2783 -14.0604
rtoes -2.16651
lfemur -29.0276 3.44751 -10.3932
ltibia 20.2571
lfoot -2.84072 6.30037
ltoes -12.1211
602
root -22.8745 17.7628 5.02743 121.891 -81.5544 -114.885
lowerback -1.54572 1.18167 6.67468
upperback -1.02315 1.39175 3.53857
thorax -0.112819 0.631722 -0.0745404
lowerneck -10.3726 -2.74549 -5.5381
upperneck -2.17538 -3.26293 7.33438
head 1.36136 -1.51112 3.22806
rclavicle -3.42904e-015 -7.95139e-016
rhumerus -2.54876 30.1443 -92.339
rradius 88.3728
rwrist -51.8089
rhand -10.2772 -61.7277
rfingers 7.12502
rthumb 15.7167 -628.891
lclavicle -3.42904e-015 -7.95139e-016
lhumerus -46.8834 -28.5787 108.878
lradius 99.5196
lwrist 48.117
lhand -6.69533 57.9899
lfingers 7.12502
lthumb 19.1638 87.0657
rfemur -3.92542 1.1061 27.6921
rtibia 36.3936
rfoot -9.7199 -14.4336
rtoes -1.68904
lfemur -28.5517 3.55106 -10.8454
ltibia 20.2737
lfoot -2.89728 5.97478
ltoes -11.7986
603
root -23.0198 17.7699 5.04621 119.345 -81.8982 -112.459
lowerback -1.5345 1.08658 6.50156
upperback -1.06014 1.2756 3.45942
thorax -0.165071 0.574585 -0.0629614
lowerneck -10.3442 -2.82546 -5.56264
upperneck -2.11545 -3.37077 7.41936
head 1.3868 -1.56259 3.25702
rclavicle -7.1811e-015 2.78299e-015
rhumerus -1.67216 30.0037 -91.7907
rradius 89.5845
rwrist -50.3421
rhand -10.3886 -61.0313
rfingers 7.12502
rthumb 15.6094 -629.579
lclavicle -7.1811e-015 2.78299e-015
lhumerus -46.8214 -28.0015 108.618
lradius 98.1508
lwrist 47.8713
lhand -6.79541 58.2647
lfingers 7.12502
lthumb 19.0676 87.3501
rfemur -4.39029 0.628393 27.4324
rtibia 37.7197
rfoot -9.15674 -14.8189
rtoes -1.14194
lfemur -28.0494 3.64083 -11.2975
ltibia 20.29
lfoot -2.97408 5.64271
ltoes -11.4565
604
root -23.1652 17.778 5.06531 116.486 -82.2392 -109.721
lowerback -1.52259 0.981824 6.3171
upperback -1.09747 1.1466 3.37877
thorax -0.218446 0.511149 -0.0465908
lowerneck -10.3093 -2.90263 -5.58731
upperneck -2.09019 -3.47467 7.51235
head 1.39976 -1.61265 3.28894
rclavicle -7.20594e-016 3.61788e-014
rhumerus -0.892417 29.821 -91.27
rradius 90.6871
rwrist -48.8252
rhand -10.5209 -60.3914
rfingers 7.12502
rthumb 15.482 -449.792
lclavicle -7.20594e-016 3.61788e-014
lhumerus -46.6881 -27.4587 108.389
lradius 96.7477
lwrist 47.609
lhand -6.91055 58.5481
lfingers 7.12502
lthumb 18.9568 87.6444
rfemur -4.89639 0.142718 27.1671
rtibia 39.0532
rfoot -8.59727 -15.2136
rtoes -0.533783
lfemur -27.5226 3.71558 -11.7494
ltibia 20.3019
lfoot -3.06796 5.30502
ltoes -11.1107
605
root -23.3105 17.7871 5.08467 113.276 -82.5708 -106.631
lowerback -1.51118 0.868359 6.12222
upperback -1.13541 1.00584 3.2974
thorax -0.272383 0.441944 -0.0250507
lowerneck -10.2667 -2.97695 -5.61432
upperneck -2.10095 -3.57425 7.61502
head 1.39967 -1.66114 3.32487
rclavicle -5.71506e-016 3.22031e-014
rhumerus -0.215554 29.6042 -90.7808
rradius 91.681
rwrist -47.2653
rhand -10.6913 -59.809
rfingers 7.12502
rthumb 15.3179 -449.222
lclavicle -5.71506e-016 3.22031e-014
lhumerus -46.4853 -26.9531 108.195
lradius 95.3162
lwrist 47.3286
lhand -7.03444 58.8339
lfingers 7.12502
lthumb 18.8377 87.9417
rfemur -5.44327 -0.34857 26.8985
rtibia 40.3848
rfoot -8.04975 -15.6143
rtoes 0.127643
lfemur -26.9739 3.77519 -12.1974
ltibia 20.3057
lfoot -3.18058 4.96192
ltoes -10.7576
606
root -23.4558 17.7972 5.10427 109.691 -82.8862 -103.167
lowerback -1.49853 0.747011 5.91854
upperback -1.17267 0.854443 3.21517
thorax -0.326335 0.367566 0.000653556
lowerneck -10.2171 -3.04859 -5.6439
upperneck -2.14828 -3.66958 7.7281
head 1.38648 -1.70811 3.36517
rclavicle 8.44835e-016 3.61788e-014
rhumerus 0.352969 29.3617 -90.3282
rradius 92.569
rwrist -45.6707
rhand -10.8813 -59.2742
rfingers 7.12502
rthumb 15.1349 -448.701
lclavicle 8.44835e-016 3.61788e-014
lhumerus -46.2146 -26.4856 108.035
lradius 93.8646
lwrist 47.0303
lhand -7.17035 59.1154
lfingers 7.12502
lthumb 18.707 88.2359
rfemur -6.02662 -0.842484 26.6277
rtibia 41.7052
rfoot -7.52003 -16.0174
rtoes 0.833709
lfemur -26.4004 3.81994 -12.6391
ltibia 20.296
lfoot -3.31112 4.61316
ltoes -10.3964
607
root -23.6009 17.808 5.12405 105.711 -83.1813 -99.3072
lowerback -1.48889 0.618262 5.70436
upperback -1.20745 0.692605 3.13194
thorax -0.37593 0.288245 0.0314211
lowerneck -10.162 -3.11752 -5.67756
upperneck -2.23364 -3.76029 7.85169
head 1.36004 -1.75343 3.41023
rclavicle 2.38542e-015 3.02153e-014
rhumerus 0.81417 29.1026 -89.9116
rradius 93.3537
rwrist -44.048
rhand -11.0938 -58.7658
rfingers 7.12502
rthumb 14.9302 -448.208
lclavicle 2.38542e-015 3.02153e-014
lhumerus -45.8723 -26.0583 107.908
lradius 92.3993
lwrist 46.716
lhand -7.31922 59.3883
lfingers 7.12502
lthumb 18.5638 88.5225
rfemur -6.64713 -1.33754 26.3524
rtibia 43.0068
rfoot -7.01626 -16.4208
rtoes 1.56973
lfemur -25.8059 3.84895 -13.0761
ltibia 20.27
lfoot -3.45829 4.2587
ltoes -10.0286
608
root -23.7455 17.8196 5.14393 101.313 -83.4466 -95.0261
lowerback -1.47881 0.482475 5.48239
upperback -1.24199 0.521146 3.04857
thorax -0.425237 0.204228 0.0666085
lowerneck -10.101 -3.18363 -5.71611
upperneck -2.3541 -3.84612 7.98564
head 1.32126 -1.79695 3.46025
rclavicle -9.93923e-017 4.13472e-014
rhumerus 1.16289 28.8343 -89.5341
rradius 94.0405
rwrist -42.4087
rhand -11.3607 -58.3061
rfingers 7.12502
rthumb 14.673 -447.767
lclavicle -9.93923e-017 4.13472e-014
lhumerus -45.4647 -25.6728 107.816
lradius 90.928
lwrist 46.3843
lhand -7.47048 59.6573
lfingers 7.12502
lthumb 18.4183 88.8053
rfemur -7.30501 -1.83026 26.077
rtibia 44.2828
rfoot -6.54487 -16.824
rtoes 2.33503
lfemur -25.1945 3.86475 -13.5038
ltibia 20.2271
lfoot -3.62049 3.89642
ltoes -9.66113
